<svg width="197" height="262" viewBox="0 0 197 262" fill="none" xmlns="http://www.w3.org/2000/svg">
<path id="Rectangle 16" d="M195.501 61.9789L195.5 61.9895V62V261.5H0.500061V261.463V261.405V261.345V261.282V261.216V261.147V261.075V261.001V260.924V260.843V260.761V260.675V260.587V260.495V260.402V260.305V260.206V260.103V259.999V259.891V259.781V259.668V259.552V259.434V259.313V259.19V259.064V258.935V258.803V258.669V258.532V258.393V258.251V258.107V257.96V257.81V257.658V257.503V257.346V257.186V257.024V256.859V256.692V256.522V256.35V256.175V255.998V255.818V255.636V255.451V255.264V255.075V254.883V254.689V254.492V254.293V254.091V253.888V253.681V253.473V253.262V253.049V252.833V252.615V252.395V252.173V251.948V251.721V251.492V251.26V251.026V250.79V250.552V250.312V250.069V249.824V249.577V249.327V249.076V248.822V248.566V248.308V248.048V247.786V247.521V247.254V246.986V246.715V246.442V246.167V245.89V245.611V245.33V245.046V244.761V244.474V244.184V243.893V243.6V243.304V243.007V242.707V242.406V242.103V241.798V241.49V241.181V240.87V240.557V240.242V239.925V239.607V239.286V238.964V238.639V238.313V237.985V237.655V237.324V236.99V236.655V236.317V235.979V235.638V235.295V234.951V234.605V234.257V233.908V233.556V233.203V232.849V232.492V232.134V231.774V231.413V231.05V230.685V230.318V229.95V229.58V229.209V228.836V228.461V228.085V227.707V227.328V226.947V226.564V226.18V225.794V225.407V225.018V224.628V224.236V223.843V223.448V223.052V222.654V222.255V221.854V221.452V221.049V220.644V220.237V219.829V219.42V219.009V218.597V218.184V217.769V217.353V216.935V216.517V216.096V215.675V215.252V214.828V214.402V213.976V213.548V213.118V212.688V212.256V211.823V211.388V210.953V210.516V210.078V209.639V209.198V208.757V208.314V207.87V207.425V206.979V206.531V206.083V205.633V205.182V204.73V204.277V203.823V203.368V202.912V202.455V201.996V201.537V201.077V200.615V200.153V199.689V199.225V198.759V198.293V197.825V197.357V196.887V196.417V195.946V195.474V195.001V194.527V194.052V193.576V193.099V192.621V192.143V191.664V191.184V190.702V190.221V189.738V189.254V188.77V188.285V187.799V187.313V186.825V186.337V185.848V185.358V184.868V184.377V183.885V183.392V182.899V182.405V181.91V181.415V180.919V180.422V179.925V179.427V178.928V178.429V177.929V177.429V176.928V176.426V175.924V175.421V174.918V174.414V173.909V173.404V172.899V172.393V171.886V171.379V170.872V170.364V169.855V169.346V168.837V168.327V167.817V167.306V166.795V166.284V165.772V165.259V164.747V164.234V163.72V163.206V162.692V162.178V161.663V161.148V160.632V160.117V159.601V159.084V158.568V158.051V157.534V157.016V156.499V155.981V155.463V154.944V154.426V153.907V153.388V152.869V152.35V151.83V151.311V150.791V150.271V149.751V149.231V148.711V148.191V147.67V147.15V146.629V146.109V145.588V145.067V144.546V144.025V143.505V142.984V142.463V141.942V141.421V140.9V140.38V139.859V139.338V138.818V138.297V137.777V137.256V136.736V136.216V135.695V135.175V134.656V134.136V133.616V133.097V132.578V132.059V131.54V131.021V130.502V129.984V129.466V128.948V128.431V127.913V127.396V126.879V126.362V125.846V125.33V124.814V124.299V123.784V123.269V122.755V122.24V121.727V121.213V120.7V120.187V119.675V119.163V118.652V118.141V117.63V117.12V116.61V116.1V115.592V115.083V114.575V114.068V113.561V113.054V112.548V112.043V111.538V111.033V110.529V110.026V109.523V109.021V108.519V108.018V107.518V107.018V106.519V106.02V105.522V105.025V104.528V104.032V103.537V103.042V102.548V102.055V101.562V101.071V100.579V100.089V99.5992V99.1103V98.6221V98.1347V97.648V97.1621V96.677V96.1927V95.7092V95.2266V94.7447V94.2637V93.7836V93.3042V92.8258V92.3482V91.8715V91.3957V90.9208V90.4468V89.9737V89.5015V89.0302V88.5599V88.0906V87.6222V87.1547V86.6883V86.2228V85.7583V85.2949V84.8324V84.3709V83.9105V83.4511V82.9928V82.5355V82.0793V81.6242V81.1701V80.7171V80.2653V79.8145V79.3649V78.9164V78.469V78.0227V77.5776V77.1337V76.6909V76.2494V75.809V75.3698V74.9318V74.495V74.0595V73.6251V73.1921V72.7602V72.3297V71.9003V71.4723V71.0456V70.6201V70.196V69.7731V69.3516V68.9314V68.5126V68.0951V67.6789V67.2641V66.8507V66.4387V66.028V65.6188V65.211V64.8045V64.3995V63.996V63.5939V63.1932V62.794V62.3963V62C0.500061 57.3979 3.00765 51.1597 7.35177 44.3733C11.6833 37.6066 17.796 30.3639 24.9051 23.7682C32.0141 17.1725 40.1064 11.2359 48.3914 7.07051C56.6803 2.90317 65.1312 0.524059 72.9697 0.999118C81.1782 1.49659 86.0413 3.187 88.9605 5.53949C91.858 7.87442 92.9138 10.922 93.3605 14.3402C93.578 16.0044 93.649 17.7392 93.7218 19.5171L93.7285 19.6811C93.8034 21.5077 93.885 23.3761 94.14 25.207C94.6518 28.8811 95.8685 32.4508 99.1684 35.3743C100.534 36.5841 102.427 37.3147 104.676 37.7041C106.928 38.0941 109.577 38.1488 112.497 37.9739C118.334 37.6243 125.335 36.3507 132.555 34.9234C133.945 34.6487 135.343 34.3683 136.743 34.0874C142.63 32.9064 148.552 31.7185 154.043 30.9193C160.85 29.9285 166.923 29.5475 171.397 30.4893C184.01 33.1441 190.02 41.0008 192.894 48.2078C194.335 51.8189 194.987 55.2677 195.278 57.8153C195.424 59.0883 195.479 60.134 195.498 60.8593C195.508 61.222 195.508 61.5044 195.506 61.6949C195.506 61.7901 195.504 61.8624 195.503 61.9103L195.501 61.9635L195.501 61.976L195.501 61.9787L195.501 61.9789Z" stroke="#F2F4F3"/>
</svg>
