<svg width="264" height="38" viewBox="0 0 264 38" fill="none" xmlns="http://www.w3.org/2000/svg">
<path d="M14.1855 35.0469V37C12.151 36.8698 10.027 36.8047 7.81348 36.8047C5.59993 36.8047 3.1097 36.8698 0.342773 37V35.0713C1.889 35.0225 2.82487 34.9574 3.15039 34.876C3.39453 34.8109 3.57357 34.7214 3.6875 34.6074C3.81771 34.4772 3.90723 34.2819 3.95605 34.0215C4.06999 33.5332 4.15137 31.9951 4.2002 29.4072C4.24902 26.8193 4.27344 24.5244 4.27344 22.5225V14.4658C4.27344 11.9105 4.21647 9.57487 4.10254 7.45898C4.03743 6.31966 3.95605 5.64421 3.8584 5.43262C3.79329 5.31868 3.70378 5.22917 3.58984 5.16406C3.39453 5.03385 3.08529 4.9362 2.66211 4.87109C2.41797 4.83854 1.68555 4.79785 0.464844 4.74902V2.94238C2.48307 2.73079 4.0944 2.50293 5.29883 2.25879C6.50326 1.99837 8.12272 1.55078 10.1572 0.916016L10.6699 1.20898L10.4746 6.14062C10.3932 8.90755 10.3444 12.3011 10.3281 16.3213V22.5713C10.3281 24.9313 10.3444 26.6973 10.377 27.8691C10.4421 30.7826 10.4909 32.5485 10.5234 33.167C10.556 33.7692 10.613 34.1517 10.6943 34.3145C10.7432 34.4284 10.8245 34.526 10.9385 34.6074C11.085 34.7214 11.3372 34.8109 11.6953 34.876C11.8418 34.9085 12.6719 34.9655 14.1855 35.0469ZM38.5029 35.1689V37C36.6312 36.9186 34.971 36.8779 33.5225 36.8779C32.1553 36.8779 30.8288 36.9186 29.543 37L29.3232 36.7314L29.543 33.5332C28.957 33.9076 27.2318 35.1934 24.3672 37.3906C23.6348 37.5534 22.9349 37.6348 22.2676 37.6348C20.4935 37.6348 19.1019 37.1139 18.0928 36.0723C17.0999 35.0306 16.6035 33.5332 16.6035 31.5801C16.6035 30.2617 16.8232 29.1794 17.2627 28.333C17.7184 27.4867 18.1986 26.8682 18.7031 26.4775C19.224 26.0706 20.0215 25.68 21.0957 25.3057C23.6673 24.3942 26.4831 23.6781 29.543 23.1572C29.5755 21.2204 29.1768 19.7474 28.3467 18.7383C27.5003 17.7292 26.2145 17.2246 24.4893 17.2246C23.7894 17.2246 23.1221 17.3141 22.4873 17.4932C22.2106 17.5745 21.8851 17.7373 21.5107 17.9814L20.4854 20.4473L18.8252 20.0811L18.9717 16.9316C20.1761 16.1178 21.3236 15.4098 22.4141 14.8076C23.5046 14.2054 24.2695 13.8392 24.709 13.709C25.3112 13.5299 26.1576 13.4404 27.248 13.4404C29.0221 13.4404 30.4788 13.7008 31.6182 14.2217C32.7738 14.7262 33.6201 15.3285 34.1572 16.0283C34.7106 16.7282 35.085 17.4769 35.2803 18.2744C35.4919 19.0719 35.5977 20.0811 35.5977 21.3018C35.5977 21.8226 35.557 23.1816 35.4756 25.3789C35.4268 26.8438 35.4023 28.04 35.4023 28.9678C35.4023 31.8649 35.4837 33.6227 35.6465 34.2412C35.7116 34.5342 35.8418 34.7295 36.0371 34.8271C36.2975 34.9574 37.1195 35.0713 38.5029 35.1689ZM29.543 25.208C28.1595 25.501 26.89 25.859 25.7344 26.2822C24.5951 26.6891 23.8057 27.2018 23.3662 27.8203C22.9268 28.4225 22.707 29.1875 22.707 30.1152C22.707 31.1569 22.9674 31.9626 23.4883 32.5322C24.0254 33.1019 24.7253 33.3867 25.5879 33.3867C26.3203 33.3867 27.0527 33.1751 27.7852 32.752C28.5339 32.3288 29.1198 31.7917 29.543 31.1406V25.208ZM47.0244 1.64844C48.0661 1.64844 48.945 2.01465 49.6611 2.74707C50.3936 3.47949 50.7598 4.3584 50.7598 5.38379C50.7598 6.42546 50.3936 7.3125 49.6611 8.04492C48.945 8.77734 48.0661 9.14355 47.0244 9.14355C45.999 9.14355 45.1201 8.77734 44.3877 8.04492C43.6553 7.3125 43.2891 6.42546 43.2891 5.38379C43.2891 4.3584 43.6471 3.47949 44.3633 2.74707C45.0957 2.01465 45.9827 1.64844 47.0244 1.64844ZM40.335 37V35.1934C42.1579 35.0632 43.1995 34.9248 43.46 34.7783C43.7204 34.6156 43.8831 34.3226 43.9482 33.8994C44.111 33.0042 44.1924 30.7012 44.1924 26.9902C44.1924 21.8958 44.1191 18.9987 43.9727 18.2988C43.9076 17.9733 43.8018 17.7617 43.6553 17.6641C43.3298 17.4525 42.223 17.3385 40.335 17.3223V15.4668C42.7926 15.2064 44.6481 14.9297 45.9014 14.6367C47.1546 14.3438 48.5218 13.8962 50.0029 13.2939L50.5889 13.6113C50.3936 16.1504 50.2959 18.5348 50.2959 20.7646V29.0654C50.2959 31.8975 50.361 33.5739 50.4912 34.0947C50.5563 34.3877 50.6865 34.583 50.8818 34.6807C51.3213 34.8923 52.3874 35.0306 54.0801 35.0957V37C51.7689 36.9349 49.2542 36.9023 46.5361 36.9023C44.1924 36.9023 42.1253 36.9349 40.335 37ZM69.4863 35.0469V37C67.4518 36.8698 65.3278 36.8047 63.1143 36.8047C60.9007 36.8047 58.4105 36.8698 55.6436 37V35.0713C57.1898 35.0225 58.1257 34.9574 58.4512 34.876C58.6953 34.8109 58.8743 34.7214 58.9883 34.6074C59.1185 34.4772 59.208 34.2819 59.2568 34.0215C59.3708 33.5332 59.4521 31.9951 59.501 29.4072C59.5498 26.8193 59.5742 24.5244 59.5742 22.5225V14.4658C59.5742 11.9105 59.5173 9.57487 59.4033 7.45898C59.3382 6.31966 59.2568 5.64421 59.1592 5.43262C59.0941 5.31868 59.0046 5.22917 58.8906 5.16406C58.6953 5.03385 58.3861 4.9362 57.9629 4.87109C57.7188 4.83854 56.9863 4.79785 55.7656 4.74902V2.94238C57.7839 2.73079 59.3952 2.50293 60.5996 2.25879C61.804 1.99837 63.4235 1.55078 65.458 0.916016L65.9707 1.20898L65.7754 6.14062C65.694 8.90755 65.6452 12.3011 65.6289 16.3213V22.5713C65.6289 24.9313 65.6452 26.6973 65.6777 27.8691C65.7428 30.7826 65.7917 32.5485 65.8242 33.167C65.8568 33.7692 65.9137 34.1517 65.9951 34.3145C66.0439 34.4284 66.1253 34.526 66.2393 34.6074C66.3857 34.7214 66.638 34.8109 66.9961 34.876C67.1426 34.9085 67.9727 34.9655 69.4863 35.0469ZM71.2451 17.4199V15.5645C72.6449 15.4831 74.0527 15.2959 75.4688 15.0029C76.8848 14.71 78.6995 14.1891 80.9131 13.4404L81.2549 13.709C81.027 16.9316 80.9131 19.9102 80.9131 22.6445V25.3789C80.9131 27.7064 80.9701 29.2607 81.084 30.042C81.2467 31.0674 81.6374 31.8405 82.2559 32.3613C82.8743 32.8822 83.6963 33.1426 84.7217 33.1426C85.8936 33.1426 86.8783 32.8415 87.6758 32.2393C88.4733 31.6208 89.0267 30.986 89.3359 30.335C89.5312 29.9118 89.6289 29.0329 89.6289 27.6982V23.5234L89.5801 20.0566C89.5801 18.9336 89.5068 18.2581 89.3604 18.0303C89.279 17.8838 89.1162 17.7699 88.8721 17.6885C88.6279 17.6071 87.6351 17.5176 85.8936 17.4199V15.5645C88.4163 15.2389 90.1335 14.9785 91.0449 14.7832C91.9564 14.5879 93.5026 14.1403 95.6836 13.4404L96.1475 13.709L95.8789 18.2012C95.7487 21.3913 95.6836 23.1735 95.6836 23.5479V28.5527C95.6836 31.5312 95.7568 33.3704 95.9033 34.0703C95.9684 34.3633 96.0905 34.5667 96.2695 34.6807C96.5788 34.8434 97.5798 34.9655 99.2725 35.0469V37L94.2432 36.8779L89.6289 37L89.458 36.8047L89.6045 34.9248C89.6208 34.6156 89.6289 33.9889 89.6289 33.0449C88.9941 33.5495 88.4408 34.0133 87.9688 34.4365L85.21 37.0488C84.0869 37.4557 82.9557 37.6592 81.8164 37.6592C79.6191 37.6592 77.8939 37.057 76.6406 35.8525C75.3874 34.6481 74.7607 33.0449 74.7607 31.043C74.7607 30.7988 74.7852 29.8955 74.834 28.333C74.8503 27.5029 74.8584 26.4287 74.8584 25.1104L74.8096 19.959C74.8096 19.015 74.7445 18.429 74.6143 18.2012C74.5003 17.9733 74.305 17.8024 74.0283 17.6885C73.7516 17.5745 72.8239 17.485 71.2451 17.4199ZM101.031 37V35.1201C102.301 35.1201 103.18 35.0306 103.668 34.8516C103.896 34.7702 104.067 34.6318 104.181 34.4365C104.343 34.1273 104.433 33.5413 104.449 32.6787L104.547 30.5059C104.563 30.0501 104.571 29.3096 104.571 28.2842V25.0859C104.571 23.6374 104.522 21.8796 104.425 19.8125C104.376 18.7708 104.303 18.1849 104.205 18.0547C104.124 17.9082 103.985 17.8024 103.79 17.7373C103.481 17.6234 102.561 17.542 101.031 17.4932V15.6133C103.993 15.1087 105.938 14.7344 106.866 14.4902C107.794 14.2461 108.844 13.8555 110.016 13.3184L110.675 13.6113V17.542L115.118 13.9775C115.639 13.766 116.078 13.6276 116.437 13.5625C116.811 13.4811 117.307 13.4404 117.926 13.4404C119.879 13.4404 121.352 13.7578 122.345 14.3926C123.354 15.0111 124.184 16.0609 124.835 17.542L129.278 13.9775C129.799 13.766 130.239 13.6276 130.597 13.5625C130.971 13.4811 131.467 13.4404 132.086 13.4404C133.697 13.4404 134.942 13.6439 135.821 14.0508C136.716 14.4414 137.457 14.9785 138.043 15.6621C138.629 16.3457 139.044 17.0781 139.288 17.8594C139.532 18.6406 139.654 19.8451 139.654 21.4727C139.654 23.263 139.638 24.4512 139.605 25.0371C139.589 25.2324 139.581 25.4684 139.581 25.7451V28.2842C139.581 30.8883 139.622 32.5566 139.703 33.2891C139.801 34.0052 139.955 34.4609 140.167 34.6562C140.395 34.8353 140.883 34.9492 141.632 34.998C141.892 35.0143 142.348 35.055 142.999 35.1201V37C140.769 36.8698 138.93 36.8047 137.481 36.8047C135.838 36.8047 134.438 36.8698 133.282 37L132.94 36.5361L133.233 32.1172C133.299 30.3268 133.331 28.7887 133.331 27.5029V25.6475C133.331 22.7503 133.201 20.9274 132.94 20.1787C132.68 19.4137 132.241 18.8197 131.622 18.3965C131.02 17.957 130.255 17.7373 129.327 17.7373C128.285 17.7373 127.398 18.0059 126.666 18.543C125.934 19.0638 125.478 19.5439 125.299 19.9834C125.136 20.4066 125.063 21.2692 125.079 22.5713V28.4795L125.128 30.9209L125.177 32.8984C125.193 33.5007 125.25 33.9157 125.348 34.1436C125.445 34.3714 125.584 34.5423 125.763 34.6562C125.909 34.7376 126.218 34.8109 126.69 34.876C127.618 34.9899 128.285 35.0713 128.692 35.1201V37C127.244 36.9349 125.16 36.9023 122.442 36.9023C119.415 36.9023 117.177 36.9349 115.729 37V35.1201C116.038 35.0713 116.437 35.0225 116.925 34.9736C117.641 34.9248 118.089 34.8434 118.268 34.7295C118.463 34.5993 118.618 34.3551 118.731 33.9971C118.845 33.6227 118.902 32.7682 118.902 31.4336L118.951 27.1123V23.6455C118.951 21.9854 118.845 20.8135 118.634 20.1299C118.438 19.43 118.023 18.8522 117.389 18.3965C116.77 17.9245 115.965 17.6885 114.972 17.6885C113.881 17.6885 112.962 17.9652 112.213 18.5186C111.464 19.0719 110.992 19.6253 110.797 20.1787C110.699 20.488 110.659 21.7656 110.675 24.0117V28.2842C110.675 30.4814 110.724 32.166 110.821 33.3379C110.854 33.9564 110.935 34.347 111.065 34.5098C111.196 34.6725 111.415 34.7946 111.725 34.876C111.952 34.9411 112.709 35.0225 113.995 35.1201V37C112.237 36.9349 110.121 36.9023 107.647 36.9023C104.864 36.9023 102.659 36.9349 101.031 37ZM144.514 37V35.1201C145.783 35.1201 146.662 35.0306 147.15 34.8516C147.378 34.7702 147.549 34.6318 147.663 34.4365C147.826 34.1273 147.915 33.5413 147.932 32.6787L148.029 30.5059C148.046 30.0501 148.054 29.3096 148.054 28.2842V25.0859C148.054 23.6374 148.005 21.8796 147.907 19.8125C147.858 18.7708 147.785 18.1849 147.688 18.0547C147.606 17.9082 147.468 17.8024 147.272 17.7373C146.963 17.6234 146.044 17.542 144.514 17.4932V15.6133C147.476 15.1087 149.421 14.7344 150.349 14.4902C151.276 14.2461 152.326 13.8555 153.498 13.3184L154.157 13.6113V17.542L158.601 13.9775C159.121 13.766 159.561 13.6276 159.919 13.5625C160.293 13.4811 160.79 13.4404 161.408 13.4404C163.361 13.4404 164.834 13.7578 165.827 14.3926C166.836 15.0111 167.666 16.0609 168.317 17.542L172.761 13.9775C173.282 13.766 173.721 13.6276 174.079 13.5625C174.453 13.4811 174.95 13.4404 175.568 13.4404C177.18 13.4404 178.425 13.6439 179.304 14.0508C180.199 14.4414 180.939 14.9785 181.525 15.6621C182.111 16.3457 182.526 17.0781 182.771 17.8594C183.015 18.6406 183.137 19.8451 183.137 21.4727C183.137 23.263 183.12 24.4512 183.088 25.0371C183.072 25.2324 183.063 25.4684 183.063 25.7451V28.2842C183.063 30.8883 183.104 32.5566 183.186 33.2891C183.283 34.0052 183.438 34.4609 183.649 34.6562C183.877 34.8353 184.366 34.9492 185.114 34.998C185.375 35.0143 185.83 35.055 186.481 35.1201V37C184.252 36.8698 182.412 36.8047 180.964 36.8047C179.32 36.8047 177.92 36.8698 176.765 37L176.423 36.5361L176.716 32.1172C176.781 30.3268 176.813 28.7887 176.813 27.5029V25.6475C176.813 22.7503 176.683 20.9274 176.423 20.1787C176.162 19.4137 175.723 18.8197 175.104 18.3965C174.502 17.957 173.737 17.7373 172.81 17.7373C171.768 17.7373 170.881 18.0059 170.148 18.543C169.416 19.0638 168.96 19.5439 168.781 19.9834C168.618 20.4066 168.545 21.2692 168.562 22.5713V28.4795L168.61 30.9209L168.659 32.8984C168.675 33.5007 168.732 33.9157 168.83 34.1436C168.928 34.3714 169.066 34.5423 169.245 34.6562C169.392 34.7376 169.701 34.8109 170.173 34.876C171.101 34.9899 171.768 35.0713 172.175 35.1201V37C170.726 36.9349 168.643 36.9023 165.925 36.9023C162.897 36.9023 160.66 36.9349 159.211 37V35.1201C159.52 35.0713 159.919 35.0225 160.407 34.9736C161.123 34.9248 161.571 34.8434 161.75 34.7295C161.945 34.5993 162.1 34.3551 162.214 33.9971C162.328 33.6227 162.385 32.7682 162.385 31.4336L162.434 27.1123V23.6455C162.434 21.9854 162.328 20.8135 162.116 20.1299C161.921 19.43 161.506 18.8522 160.871 18.3965C160.253 17.9245 159.447 17.6885 158.454 17.6885C157.364 17.6885 156.444 17.9652 155.695 18.5186C154.947 19.0719 154.475 19.6253 154.279 20.1787C154.182 20.488 154.141 21.7656 154.157 24.0117V28.2842C154.157 30.4814 154.206 32.166 154.304 33.3379C154.336 33.9564 154.418 34.347 154.548 34.5098C154.678 34.6725 154.898 34.7946 155.207 34.876C155.435 34.9411 156.192 35.0225 157.478 35.1201V37C155.72 36.9349 153.604 36.9023 151.13 36.9023C148.347 36.9023 146.141 36.9349 144.514 37ZM210.335 35.1689V37C208.463 36.9186 206.803 36.8779 205.354 36.8779C203.987 36.8779 202.661 36.9186 201.375 37L201.155 36.7314L201.375 33.5332C200.789 33.9076 199.064 35.1934 196.199 37.3906C195.467 37.5534 194.767 37.6348 194.1 37.6348C192.326 37.6348 190.934 37.1139 189.925 36.0723C188.932 35.0306 188.436 33.5332 188.436 31.5801C188.436 30.2617 188.655 29.1794 189.095 28.333C189.55 27.4867 190.031 26.8682 190.535 26.4775C191.056 26.0706 191.854 25.68 192.928 25.3057C195.499 24.3942 198.315 23.6781 201.375 23.1572C201.408 21.2204 201.009 19.7474 200.179 18.7383C199.332 17.7292 198.047 17.2246 196.321 17.2246C195.621 17.2246 194.954 17.3141 194.319 17.4932C194.043 17.5745 193.717 17.7373 193.343 17.9814L192.317 20.4473L190.657 20.0811L190.804 16.9316C192.008 16.1178 193.156 15.4098 194.246 14.8076C195.337 14.2054 196.102 13.8392 196.541 13.709C197.143 13.5299 197.99 13.4404 199.08 13.4404C200.854 13.4404 202.311 13.7008 203.45 14.2217C204.606 14.7262 205.452 15.3285 205.989 16.0283C206.543 16.7282 206.917 17.4769 207.112 18.2744C207.324 19.0719 207.43 20.0811 207.43 21.3018C207.43 21.8226 207.389 23.1816 207.308 25.3789C207.259 26.8438 207.234 28.04 207.234 28.9678C207.234 31.8649 207.316 33.6227 207.479 34.2412C207.544 34.5342 207.674 34.7295 207.869 34.8271C208.13 34.9574 208.951 35.0713 210.335 35.1689ZM201.375 25.208C199.992 25.501 198.722 25.859 197.566 26.2822C196.427 26.6891 195.638 27.2018 195.198 27.8203C194.759 28.4225 194.539 29.1875 194.539 30.1152C194.539 31.1569 194.799 31.9626 195.32 32.5322C195.857 33.1019 196.557 33.3867 197.42 33.3867C198.152 33.3867 198.885 33.1751 199.617 32.752C200.366 32.3288 200.952 31.7917 201.375 31.1406V25.208ZM240.512 35.0469V37C239.828 36.9512 238.404 36.9268 236.239 36.9268C233.977 36.9268 232.561 36.9512 231.991 37C231.145 35.5677 229.42 33.3786 226.815 30.4326C224.228 27.4704 222.763 25.859 222.421 25.5986C222.307 25.501 222.128 25.444 221.884 25.4277V27.8203C221.884 29.0085 221.933 30.6117 222.03 32.6299C222.079 33.5413 222.144 34.0947 222.226 34.29C222.274 34.4202 222.364 34.526 222.494 34.6074C222.673 34.7376 222.982 34.8353 223.422 34.9004C223.617 34.9329 224.382 34.9818 225.717 35.0469V37C223.731 36.8861 221.558 36.8291 219.198 36.8291C216.675 36.8291 214.332 36.8861 212.167 37V35.0469C213.599 34.9818 214.438 34.9248 214.682 34.876C214.942 34.8109 215.137 34.7214 215.268 34.6074C215.398 34.4772 215.487 34.3145 215.536 34.1191C215.666 33.6309 215.748 32.3044 215.78 30.1396C215.845 27.1937 215.878 24.6546 215.878 22.5225V14.6123C215.878 11.9919 215.813 9.61556 215.683 7.4834C215.634 6.3929 215.561 5.75 215.463 5.55469C215.398 5.44076 215.308 5.35124 215.194 5.28613C214.999 5.1722 214.698 5.08268 214.291 5.01758C214.014 4.96875 213.306 4.91992 212.167 4.87109V3.06445C214.462 2.78776 216.122 2.53548 217.147 2.30762C218.189 2.07975 219.678 1.65658 221.615 1.03809L222.152 1.33105L221.981 6.62891C221.916 9.55859 221.884 12.5046 221.884 15.4668V24.3535C222.405 23.9629 223.007 23.4583 223.69 22.8398C225.123 21.5378 226.311 20.431 227.255 19.5195C227.597 19.1615 228.199 18.5592 229.062 17.7129C229.924 16.8665 230.648 16.1016 231.234 15.418V14.0508C232.699 14.0833 234.18 14.0915 235.678 14.0752C236.329 14.0752 237.419 14.0671 238.949 14.0508V15.9551L236.386 16.126C236.109 16.1585 235.84 16.2399 235.58 16.3701C235.092 16.6143 234.335 17.1432 233.31 17.957C231.877 19.0964 231.015 19.8044 230.722 20.0811C230.429 20.3577 230.201 20.5693 230.038 20.7158L227.963 22.5225C229.395 24.2152 231.82 26.9984 235.238 30.8721C237.159 33.0693 238.42 34.3389 239.022 34.6807C239.364 34.876 239.861 34.998 240.512 35.0469ZM262.705 33.2402L261.631 35.6328C260.296 36.4466 258.921 37.0488 257.505 37.4395C256.447 37.7161 255.243 37.8545 253.892 37.8545C252.28 37.8545 250.856 37.6673 249.619 37.293C248.398 36.9186 247.349 36.4059 246.47 35.7549C245.607 35.1038 244.842 34.3063 244.175 33.3623C243.524 32.4183 243.052 31.3278 242.759 30.0908C242.466 28.8538 242.319 27.5029 242.319 26.0381C242.319 23.9059 242.604 22.0016 243.174 20.3252C243.564 19.1533 244.02 18.307 244.541 17.7861C244.867 17.4606 245.713 16.8503 247.08 15.9551C248.447 15.0599 249.44 14.474 250.059 14.1973C251.198 13.6927 252.541 13.4404 254.087 13.4404C256.268 13.4404 258.058 13.8962 259.458 14.8076C260.858 15.7191 261.842 16.8828 262.412 18.2988C262.998 19.7148 263.291 21.432 263.291 23.4502C263.291 23.9059 263.275 24.3454 263.242 24.7686C262.835 24.8988 262.217 25.0452 261.387 25.208C260.28 25.4196 259.531 25.5335 259.141 25.5498C257.92 25.6475 256.309 25.7044 254.307 25.7207C252.305 25.737 251.198 25.7533 250.986 25.7695C250.775 25.7858 250.539 25.7939 250.278 25.7939H248.667C248.797 28.3656 249.595 30.4001 251.06 31.8975C252.524 33.3786 254.331 34.1191 256.479 34.1191C257.407 34.1191 258.262 34.0215 259.043 33.8262C259.824 33.6146 260.85 33.1914 262.119 32.5566L262.705 33.2402ZM256.895 23.1328C256.96 20.5449 256.61 18.7301 255.845 17.6885C255.063 16.6631 254.054 16.1504 252.817 16.1504C251.548 16.1504 250.498 16.6875 249.668 17.7617C248.822 18.8522 248.431 20.6426 248.496 23.1328C249.456 23.2793 251.06 23.3525 253.306 23.3525C254.738 23.3525 255.934 23.2793 256.895 23.1328Z" fill="#213127"/>
</svg>
