<?xml version="1.0" encoding="utf-8"?>
<!-- Generator: Adobe Illustrator 23.1.1, SVG Export Plug-In . SVG Version: 6.00 Build 0)  -->
<svg version="1.1" id="Layer_1" xmlns="http://www.w3.org/2000/svg" xmlns:xlink="http://www.w3.org/1999/xlink" x="0px" y="0px"
	 viewBox="0 0 133.7 30" style="enable-background:new 0 0 133.7 30;" xml:space="preserve">
<style type="text/css">
	.st0{fill:#213127;}
</style>
<g>
	<path class="st0" d="M11.4,29H1.3v-1.8l2.9-2.4V7.3L1.3,5.4V3.6L7.6,1h2v25l2.9,1L11.4,29z"/>
	<path class="st0" d="M32.9,29h-7.3v-2.8l-3.6,2.9c-0.4,0.2-1,0.3-1.6,0.3c-2.1,0-3.5-0.5-4.4-1.5c-0.9-1-1.4-2.2-1.4-3.6
		c0-0.8,0.3-1.7,0.8-2.5c0.5-0.8,1.3-1.5,2.2-2.2h8.1V19c0-1.2-0.3-2-1-2.6c-0.6-0.6-1.5-0.8-2.6-0.8c-1.5,0-3.5,0.6-5.9,1.8l-1-1.8
		l4.5-3.6c1.1-0.3,2.4-0.5,3.8-0.5c2.4,0,4.3,0.5,5.6,1.6c1.3,1.1,2,2.7,2,4.7v8l2.9,1.1L32.9,29z M25.6,23.7v-2.1h-5.2
		c-0.2,0.3-0.3,0.5-0.4,0.7c-0.1,0.2-0.1,0.5-0.1,0.8c0,0.5,0.2,1,0.6,1.3c0.4,0.4,0.9,0.5,1.5,0.5v0C23.1,25,24.3,24.6,25.6,23.7z"
		/>
	<path class="st0" d="M45.9,29H35.7v-1.8l2.9-2.4v-7.4l-2.9-1.9v-1.8l6.3-2.6h2V26l2.9,1L45.9,29z M43.5,2.3
		c0.6,0.6,0.9,1.3,0.9,2.2c0,0.6-0.2,1.2-0.6,1.7c-0.4,0.5-1,1-1.6,1.3C41.5,7.9,40.9,8,40.3,8c-0.9,0-1.6-0.3-2.2-0.9
		c-0.6-0.6-0.9-1.3-0.9-2.2c0-0.6,0.2-1.2,0.6-1.7c0.4-0.5,1-1,1.6-1.3c0.6-0.3,1.2-0.5,1.8-0.5C42.2,1.4,42.9,1.7,43.5,2.3z"/>
	<path class="st0" d="M58.3,29H48.2v-1.8l2.9-2.4V7.3l-2.9-1.9V3.6L54.5,1h2v25l2.9,1L58.3,29z"/>
	<path class="st0" d="M81.4,29h-7.3v-2.8l-3.5,2.9c-0.6,0.2-1.2,0.3-2,0.3c-1.6,0-3-0.4-3.9-1.3c-1-0.9-1.4-2.1-1.4-3.6v-6.9
		l-2.9-1.6v-1.8l6.3-2.8h2V22c0,1,0.1,1.7,0.4,2.2c0.3,0.4,0.8,0.6,1.6,0.6c1.1,0,2.2-0.4,3.3-1.1v-6.2l-2.9-1.6v-1.8l6.3-2.8h2V26
		l2.9,1L81.4,29z"/>
	<path class="st0" d="M115.2,29h-7.3V18.4c0-0.9-0.1-1.5-0.4-1.8c-0.3-0.4-0.8-0.5-1.5-0.5c-1,0-2.1,0.4-3.1,1.1v9l2.7,0.9l-1,2.1
		h-7.1V18.4c0-0.9-0.1-1.5-0.4-1.8c-0.3-0.4-0.8-0.5-1.5-0.5c-1,0-2.1,0.4-3,1.1v9l2.7,0.9l-1,2.1h-9.9v-1.8l2.9-2.4v-7.3l-2.9-1.8
		v-1.8l6.7-2.8l1.3,3.7l3.9-3.2c0.5-0.2,1.1-0.3,1.8-0.3c1.3,0,2.3,0.3,3.2,0.9c0.9,0.6,1.4,1.4,1.7,2.4l3.7-3
		c0.5-0.2,1.1-0.3,1.8-0.3c1.6,0,2.8,0.4,3.7,1.3c0.9,0.9,1.4,2.1,1.4,3.6V26l2.9,1L115.2,29z"/>
	<path class="st0" d="M126.5,23.7c-0.6-0.4-1.4-0.9-2.6-1.6c-1.1-0.6-2-1.2-2.7-1.7c-0.7-0.5-1.3-1-1.8-1.6
		c-0.5-0.6-0.8-1.2-0.8-1.9c0-0.8,0.4-1.6,1.1-2.5s1.6-1.6,2.7-2.2c1.1-0.6,2.1-0.9,3-0.9c1.1,0,2.4,0.1,3.8,0.4
		c1.5,0.2,2.5,0.5,3.2,0.8v5.4h-2c-0.6-1.1-1.3-1.9-2.1-2.5c-0.8-0.6-1.6-0.9-2.5-0.9c-0.4,0-0.8,0.1-1,0.4
		c-0.3,0.2-0.4,0.5-0.4,0.9c0,0.4,0.3,0.9,0.9,1.3c0.6,0.4,1.5,1,2.7,1.7c1.6,0.9,2.9,1.7,3.8,2.4c0.9,0.7,1.3,1.6,1.3,2.5
		c0,0.8-0.4,1.6-1.1,2.5c-0.8,0.9-1.7,1.6-2.8,2.2c-1.1,0.6-2.1,0.9-3,0.9c-1.2,0-2.6-0.1-4.2-0.4s-2.8-0.5-3.4-0.8v-5.6h2
		c0.6,1.1,1.4,2,2.4,2.6c0.9,0.6,1.9,0.9,2.8,0.9c0.5,0,0.9-0.1,1.1-0.4s0.4-0.5,0.4-0.9C127.4,24.5,127.1,24.1,126.5,23.7z"/>
</g>
</svg>
