<?xml version="1.0" encoding="utf-8"?>
<!-- Generator: Adobe Illustrator 24.3.0, SVG Export Plug-In . SVG Version: 6.00 Build 0)  -->
<svg version="1.1" id="Layer_1" xmlns="http://www.w3.org/2000/svg" xmlns:xlink="http://www.w3.org/1999/xlink" x="0px" y="0px"
	 viewBox="0 0 119.7 26.3" style="enable-background:new 0 0 119.7 26.3;" xml:space="preserve">
<style type="text/css">
	.st0{fill:#FFFFFF;}
</style>
<g>
	<path class="st0" d="M9.2,25.9H0.4v-1.2L3,22.6V5.1L0.4,3.3V2.1L5.8,0h1.4v23.4l2.7,1L9.2,25.9z"/>
	<path class="st0" d="M28.4,25.9h-6.1v-2.6l-3.4,2.6c-0.4,0.2-0.9,0.3-1.5,0.3c-1.8,0-3.1-0.4-3.9-1.3c-0.8-0.9-1.2-2-1.2-3.2
		c0-0.7,0.3-1.4,0.7-2.2s1.2-1.3,2.2-2h7.1v-1.3c0-2.3-1.2-3.4-3.6-3.4c-1.3,0-2.9,0.7-4.9,2l-0.9-1.3l4.2-3.4
		c0.7-0.2,1.8-0.3,3.1-0.3c2,0,3.5,0.5,4.6,1.4s1.6,2.3,1.6,4.1v8.2l2.7,1L28.4,25.9z M22.3,21.6v-2.5h-5.1
		c-0.4,0.5-0.6,1.1-0.6,1.8c0,0.6,0.2,1.2,0.5,1.7c0.4,0.5,0.9,0.7,1.4,0.7C19.7,23.1,20.9,22.6,22.3,21.6z"/>
	<path class="st0" d="M39.9,25.9h-8.8v-1.2l2.6-2.2v-8l-2.6-1.8v-1.2l5.4-2.1H38v13.9l2.7,1L39.9,25.9z M37.6,1.3
		c0.5,0.5,0.7,1.1,0.7,1.8c0,0.5-0.2,1-0.5,1.4c-0.3,0.5-0.7,0.8-1.2,1.1C36,5.9,35.6,6,35.2,6c-0.7,0-1.3-0.3-1.8-0.7
		c-0.5-0.5-0.7-1.1-0.7-1.8c0-0.5,0.2-1,0.5-1.4s0.7-0.7,1.2-1.1c0.5-0.3,0.9-0.4,1.4-0.4C36.6,0.5,37.1,0.8,37.6,1.3z"/>
	<path class="st0" d="M51.2,25.9h-8.8v-1.2l2.6-2.2V5.1l-2.6-1.8V2.1L47.8,0h1.4v23.4l2.7,1L51.2,25.9z"/>
	<path class="st0" d="M72.2,25.9h-6.1V23l-3.5,3c-0.4,0.2-1,0.3-1.8,0.3c-1.4,0-2.5-0.4-3.4-1.2c-0.8-0.8-1.2-2-1.2-3.4v-6.9
		l-2.6-1.5v-1.2L59,9.6h1.4v10.3c0,1.1,0.2,1.8,0.5,2.2c0.3,0.3,0.9,0.6,1.7,0.6c0.5,0,1.1-0.1,1.7-0.3c0.6-0.2,1.2-0.6,1.9-1.1
		v-6.5l-2.7-1.5v-1.2l5.4-2.5h1.4v13.9l2.7,1L72.2,25.9z"/>
	<path class="st0" d="M103.4,25.9h-6.1V16c0-1-0.2-1.7-0.5-2c-0.3-0.4-0.9-0.6-1.6-0.6c-0.5,0-1.1,0.1-1.6,0.3s-1.1,0.5-1.9,1.1v8.8
		l2.6,0.9L93.6,26h-6V16c0-1-0.2-1.7-0.5-2c-0.3-0.4-0.9-0.6-1.6-0.6c-0.5,0-1.1,0.1-1.7,0.3c-0.5,0.2-1.1,0.5-1.9,1.1v8.8l2.6,0.9
		L83.9,26h-8.6v-1.2l2.6-2.2v-7.7l-2.6-1.6v-1.2l5.5-2.5l1,3.6l3.8-3.2c0.4-0.2,0.9-0.3,1.6-0.3c1.1,0,2.2,0.3,2.9,0.9
		c0.7,0.6,1.3,1.4,1.5,2.4l3.7-3.1c0.4-0.2,0.9-0.3,1.6-0.3c1.4,0,2.5,0.4,3.3,1.2s1.2,2,1.2,3.3v9.1l2.6,1L103.4,25.9z"/>
	<path class="st0" d="M114.6,21.2c-0.6-0.4-1.5-1-2.6-1.6c-1.5-0.8-2.7-1.5-3.6-2.3c-0.9-0.7-1.2-1.4-1.2-2.4c0-0.7,0.3-1.5,0.9-2.3
		s1.4-1.5,2.4-2c0.9-0.5,1.8-0.8,2.6-0.8c0.9,0,2,0.1,3.3,0.3s2.2,0.5,2.8,0.7v4.7h-1.4c-0.6-1.1-1.3-2-2.1-2.6
		c-0.8-0.6-1.6-0.9-2.5-0.9c-0.5,0-1,0.1-1.3,0.4c-0.3,0.3-0.5,0.6-0.5,1.1s0.3,1,0.9,1.5s1.5,1,2.8,1.7c1,0.5,1.8,1,2.5,1.4
		c0.6,0.4,1.1,0.8,1.5,1.3s0.6,1.1,0.6,1.7c0,0.7-0.3,1.5-1,2.3s-1.4,1.5-2.4,2c-0.9,0.5-1.8,0.8-2.6,0.8c-1,0-2.3-0.1-3.6-0.3
		c-1.4-0.2-2.4-0.5-3-0.7v-4.7h1.4c0.6,1.2,1.4,2.1,2.4,2.7c0.9,0.6,1.8,1,2.8,1c0.5,0,1-0.2,1.3-0.5s0.5-0.6,0.5-1.1
		C115.5,22,115.2,21.6,114.6,21.2z"/>
</g>
</svg>
